<svg width="1024" height="1024" viewBox="0 0 1024 1024" fill="none" xmlns="http://www.w3.org/2000/svg">
  <rect width="1024" height="1024" rx="224" fill="url(#bg)"/>
  <rect x="140" y="140" width="744" height="744" rx="176" fill="url(#panel)" fill-opacity="0.3"/>
  <path d="M290 736L290 642L478 642L478 288L576 288L576 642L734 642L734 736L290 736Z" fill="white"/>
  <path d="M430 388L430 290L734 290L734 388L430 388Z" fill="#7DD3FC"/>
  <path d="M344 538C344 465.099 403.099 406 476 406H532V504H476C457.222 504 442 519.222 442 538V538C442 556.778 457.222 572 476 572H658V670H476C403.099 670 344 610.901 344 538V538Z" fill="#C4B5FD"/>
  <circle cx="658" cy="621" r="49" fill="#F8FAFC"/>
  <path d="M658 592V650" stroke="#0F172A" stroke-width="18" stroke-linecap="round"/>
  <path d="M629 621H687" stroke="#0F172A" stroke-width="18" stroke-linecap="round"/>
  <defs>
    <linearGradient id="bg" x1="110" y1="62" x2="883" y2="948" gradientUnits="userSpaceOnUse">
      <stop stop-color="#0F172A"/>
      <stop offset="0.55" stop-color="#155E75"/>
      <stop offset="1" stop-color="#0F766E"/>
    </linearGradient>
    <linearGradient id="panel" x1="227" y1="198" x2="792" y2="822" gradientUnits="userSpaceOnUse">
      <stop stop-color="#38BDF8"/>
      <stop offset="1" stop-color="#A78BFA"/>
    </linearGradient>
  </defs>
</svg>
